<?xml version="1.0" encoding="UTF-8"?>
<svg xmlns="http://www.w3.org/2000/svg" xmlns:xlink="http://www.w3.org/1999/xlink" width="96pt" height="96pt" viewBox="0 0 96 96" version="1.1">
<g id="surface17222897">
<path style=" stroke:none;fill-rule:nonzero;fill:rgb(95.686275%,26.274511%,21.176471%);fill-opacity:1;" d="M 47.511719 49.257812 C 46.113281 47.003906 45.097656 45.136719 43.695312 41.621094 C 41.320312 35.679688 58.136719 30.3125 51.316406 20 C 54.273438 27.125 40.710938 31.527344 39.449219 37.460938 C 38.296875 42.917969 47.503906 49.257812 47.511719 49.257812 Z M 47.511719 49.257812 "/>
<path style=" stroke:none;fill-rule:nonzero;fill:rgb(95.686275%,26.274511%,21.176471%);fill-opacity:1;" d="M 47.828125 38.578125 C 47.558594 42.101562 50.949219 43.976562 51.046875 46.550781 C 51.125 48.644531 49.023438 50.390625 49.023438 50.390625 C 49.023438 50.390625 52.839844 49.640625 54.03125 46.445312 C 55.355469 42.898438 51.464844 40.46875 51.867188 37.628906 C 52.238281 34.914062 60.308594 29.867188 60.308594 29.867188 C 60.308594 29.867188 48.433594 30.65625 47.828125 38.578125 Z M 47.828125 38.578125 "/>
<path style=" stroke:none;fill-rule:nonzero;fill:rgb(8.235294%,39.607844%,75.294119%);fill-opacity:1;" d="M 59.316406 49.476562 C 61.773438 48.925781 63.84375 50.488281 63.84375 52.289062 C 63.84375 56.351562 58.214844 60.191406 58.214844 60.191406 C 58.214844 60.191406 66.929688 59.152344 66.929688 52.484375 C 66.929688 48.074219 62.648438 46.972656 59.316406 49.476562 Z M 55.179688 52.753906 C 55.179688 52.753906 57.898438 50.816406 58.621094 50.089844 C 51.953125 51.503906 36.730469 51.695312 36.730469 50.46875 C 36.730469 49.335938 41.636719 48.171875 41.636719 48.171875 C 41.636719 48.171875 30.757812 48.015625 30.757812 51.226562 C 30.757812 54.574219 45 54.8125 55.179688 52.753906 Z M 55.179688 52.753906 "/>
<path style=" stroke:none;fill-rule:nonzero;fill:rgb(8.235294%,39.607844%,75.294119%);fill-opacity:1;" d="M 53.507812 55.800781 C 47.195312 57.898438 35.570312 57.226562 39.011719 54.410156 C 37.335938 54.410156 34.851562 55.757812 34.851562 57.054688 C 34.851562 59.652344 47.425781 61.660156 56.730469 57.855469 Z M 53.507812 55.800781 "/>
<path style=" stroke:none;fill-rule:nonzero;fill:rgb(8.235294%,39.607844%,75.294119%);fill-opacity:1;" d="M 40.558594 60.234375 C 38.269531 60.234375 36.789062 61.710938 36.789062 62.785156 C 36.789062 66.132812 50.453125 66.46875 55.863281 63.074219 L 52.425781 60.789062 C 48.378906 62.566406 38.21875 62.8125 40.558594 60.234375 Z M 40.558594 60.234375 "/>
<path style=" stroke:none;fill-rule:nonzero;fill:rgb(8.235294%,39.607844%,75.294119%);fill-opacity:1;" d="M 65.195312 65.683594 C 65.195312 64.375 63.714844 63.757812 63.1875 63.460938 C 66.304688 70.984375 31.945312 70.398438 31.945312 65.960938 C 31.945312 64.949219 34.472656 63.960938 36.8125 64.429688 L 34.824219 63.253906 C 30.164062 62.523438 27 64.570312 27 66.222656 C 27 73.929688 65.195312 73.558594 65.195312 65.683594 Z M 65.195312 65.683594 "/>
<path style=" stroke:none;fill-rule:nonzero;fill:rgb(8.235294%,39.607844%,75.294119%);fill-opacity:1;" d="M 69 68.445312 C 63.195312 74.179688 48.476562 76.265625 33.675781 72.726562 C 48.476562 79.03125 68.929688 75.480469 69 68.445312 Z M 69 68.445312 "/>
<path style=" stroke:none;fill-rule:nonzero;fill:rgb(35.294119%,54.11765%,8.235294%);fill-opacity:1;" d="M 24.148438 87.308594 L 24.148438 78.082031 L 26.898438 78.082031 L 26.898438 87.308594 C 26.898438 88.15625 26.710938 88.90625 26.332031 89.554688 C 25.957031 90.207031 25.429688 90.707031 24.746094 91.0625 C 24.0625 91.417969 23.289062 91.59375 22.429688 91.59375 C 21.015625 91.59375 19.917969 91.234375 19.132812 90.515625 C 18.34375 89.800781 17.953125 88.785156 17.953125 87.472656 L 20.71875 87.472656 C 20.71875 88.125 20.855469 88.609375 21.128906 88.921875 C 21.402344 89.230469 21.835938 89.386719 22.429688 89.386719 C 22.953125 89.386719 23.371094 89.207031 23.683594 88.847656 C 23.992188 88.484375 24.148438 87.972656 24.148438 87.308594 Z M 37.488281 91.410156 L 34.816406 91.410156 C 34.695312 91.171875 34.605469 90.878906 34.550781 90.523438 C 33.910156 91.238281 33.078125 91.59375 32.050781 91.59375 C 31.082031 91.59375 30.277344 91.3125 29.640625 90.75 C 29.003906 90.191406 28.683594 89.484375 28.683594 88.628906 C 28.683594 87.578125 29.070312 86.769531 29.847656 86.210938 C 30.628906 85.648438 31.753906 85.363281 33.222656 85.359375 L 34.441406 85.359375 L 34.441406 84.789062 C 34.441406 84.332031 34.324219 83.964844 34.089844 83.691406 C 33.855469 83.417969 33.484375 83.28125 32.976562 83.28125 C 32.53125 83.28125 32.183594 83.386719 31.925781 83.601562 C 31.675781 83.8125 31.546875 84.105469 31.546875 84.480469 L 28.902344 84.480469 C 28.902344 83.902344 29.078125 83.371094 29.433594 82.886719 C 29.789062 82.394531 30.289062 82.011719 30.933594 81.738281 C 31.582031 81.457031 32.308594 81.320312 33.113281 81.320312 C 34.335938 81.320312 35.304688 81.625 36.019531 82.242188 C 36.738281 82.851562 37.097656 83.714844 37.097656 84.828125 L 37.097656 89.121094 C 37.105469 90.0625 37.234375 90.773438 37.488281 91.253906 Z M 32.628906 89.570312 C 33.019531 89.570312 33.378906 89.484375 33.707031 89.308594 C 34.039062 89.132812 34.285156 88.902344 34.441406 88.609375 L 34.441406 86.90625 L 33.453125 86.90625 C 32.128906 86.90625 31.421875 87.363281 31.335938 88.277344 L 31.328125 88.433594 C 31.328125 88.765625 31.445312 89.035156 31.675781 89.25 C 31.910156 89.464844 32.226562 89.570312 32.628906 89.570312 Z M 40.863281 81.503906 L 42.703125 88.179688 L 44.542969 81.503906 L 47.308594 81.503906 L 43.964844 91.410156 L 41.4375 91.410156 L 38.097656 81.503906 Z M 56.746094 91.410156 L 54.074219 91.410156 C 53.953125 91.171875 53.863281 90.878906 53.808594 90.523438 C 53.167969 91.238281 52.335938 91.59375 51.308594 91.59375 C 50.335938 91.59375 49.53125 91.3125 48.894531 90.75 C 48.257812 90.191406 47.941406 89.484375 47.941406 88.628906 C 47.941406 87.578125 48.328125 86.769531 49.105469 86.210938 C 49.882812 85.648438 51.007812 85.363281 52.480469 85.359375 L 53.699219 85.359375 L 53.699219 84.789062 C 53.699219 84.332031 53.582031 83.964844 53.347656 83.691406 C 53.113281 83.417969 52.742188 83.28125 52.234375 83.28125 C 51.789062 83.28125 51.4375 83.386719 51.183594 83.601562 C 50.929688 83.8125 50.804688 84.105469 50.804688 84.480469 L 48.160156 84.480469 C 48.160156 83.902344 48.335938 83.371094 48.691406 82.886719 C 49.046875 82.394531 49.546875 82.011719 50.191406 81.738281 C 50.839844 81.457031 51.566406 81.320312 52.371094 81.320312 C 53.59375 81.320312 54.5625 81.625 55.277344 82.242188 C 55.996094 82.851562 56.351562 83.714844 56.351562 84.828125 L 56.351562 89.121094 C 56.359375 90.0625 56.492188 90.773438 56.746094 91.253906 Z M 51.886719 89.570312 C 52.277344 89.570312 52.636719 89.484375 52.964844 89.308594 C 53.296875 89.132812 53.542969 88.902344 53.699219 88.609375 L 53.699219 86.90625 L 52.710938 86.90625 C 51.386719 86.90625 50.679688 87.363281 50.59375 88.277344 L 50.585938 88.433594 C 50.585938 88.765625 50.703125 89.035156 50.933594 89.25 C 51.164062 89.464844 51.484375 89.570312 51.886719 89.570312 Z M 66.582031 83.480469 L 66.582031 85.632812 L 61.308594 85.632812 L 61.308594 89.203125 L 67.5 89.203125 L 67.5 91.410156 L 58.5625 91.410156 L 58.5625 78.082031 L 67.480469 78.082031 L 67.480469 80.304688 L 61.308594 80.304688 L 61.308594 83.480469 Z M 77.128906 83.480469 L 77.128906 85.632812 L 71.855469 85.632812 L 71.855469 89.203125 L 78.046875 89.203125 L 78.046875 91.410156 L 69.109375 91.410156 L 69.109375 78.082031 L 78.027344 78.082031 L 78.027344 80.304688 L 71.855469 80.304688 L 71.855469 83.480469 Z M 77.128906 83.480469 "/>
</g>
</svg>
