<?xml version="1.0" encoding="UTF-8"?>
<svg xmlns="http://www.w3.org/2000/svg" xmlns:xlink="http://www.w3.org/1999/xlink" width="48pt" height="48pt" viewBox="0 0 48 48" version="1.1">
<g id="surface17222747">
<path style=" stroke:none;fill-rule:nonzero;fill:rgb(95.686275%,26.274511%,21.176471%);fill-opacity:1;" d="M 23.753906 24.628906 C 23.054688 23.503906 22.550781 22.570312 21.847656 20.808594 C 20.660156 17.839844 29.066406 15.15625 25.660156 10 C 27.136719 13.5625 20.355469 15.765625 19.726562 18.730469 C 19.148438 21.460938 23.75 24.628906 23.753906 24.628906 Z M 23.753906 24.628906 "/>
<path style=" stroke:none;fill-rule:nonzero;fill:rgb(95.686275%,26.274511%,21.176471%);fill-opacity:1;" d="M 23.914062 19.289062 C 23.78125 21.050781 25.476562 21.988281 25.523438 23.277344 C 25.5625 24.324219 24.511719 25.195312 24.511719 25.195312 C 24.511719 25.195312 26.421875 24.820312 27.015625 23.222656 C 27.679688 21.449219 25.734375 20.234375 25.933594 18.8125 C 26.121094 17.457031 30.15625 14.933594 30.15625 14.933594 C 30.15625 14.933594 24.21875 15.328125 23.914062 19.289062 Z M 23.914062 19.289062 "/>
<path style=" stroke:none;fill-rule:nonzero;fill:rgb(8.235294%,39.607844%,75.294119%);fill-opacity:1;" d="M 29.660156 24.738281 C 30.886719 24.460938 31.921875 25.246094 31.921875 26.144531 C 31.921875 28.175781 29.105469 30.09375 29.105469 30.09375 C 29.105469 30.09375 33.464844 29.578125 33.464844 26.242188 C 33.464844 24.035156 31.324219 23.484375 29.660156 24.738281 Z M 27.589844 26.375 C 27.589844 26.375 28.949219 25.410156 29.3125 25.046875 C 25.976562 25.753906 18.363281 25.847656 18.363281 25.234375 C 18.363281 24.667969 20.820312 24.085938 20.820312 24.085938 C 20.820312 24.085938 15.378906 24.007812 15.378906 25.613281 C 15.378906 27.285156 22.5 27.40625 27.589844 26.375 Z M 27.589844 26.375 "/>
<path style=" stroke:none;fill-rule:nonzero;fill:rgb(8.235294%,39.607844%,75.294119%);fill-opacity:1;" d="M 26.753906 27.898438 C 23.597656 28.949219 17.785156 28.613281 19.507812 27.203125 C 18.667969 27.203125 17.425781 27.878906 17.425781 28.527344 C 17.425781 29.828125 23.710938 30.832031 28.367188 28.925781 Z M 26.753906 27.898438 "/>
<path style=" stroke:none;fill-rule:nonzero;fill:rgb(8.235294%,39.607844%,75.294119%);fill-opacity:1;" d="M 20.28125 30.117188 C 19.136719 30.117188 18.394531 30.855469 18.394531 31.394531 C 18.394531 33.066406 25.226562 33.234375 27.933594 31.535156 L 26.210938 30.394531 C 24.191406 31.28125 19.109375 31.40625 20.28125 30.117188 Z M 20.28125 30.117188 "/>
<path style=" stroke:none;fill-rule:nonzero;fill:rgb(8.235294%,39.607844%,75.294119%);fill-opacity:1;" d="M 32.597656 32.84375 C 32.597656 32.1875 31.859375 31.878906 31.59375 31.730469 C 33.152344 35.492188 15.972656 35.199219 15.972656 32.980469 C 15.972656 32.476562 17.238281 31.980469 18.40625 32.214844 L 17.410156 31.628906 C 15.082031 31.261719 13.5 32.285156 13.5 33.113281 C 13.5 36.964844 32.597656 36.777344 32.597656 32.84375 Z M 32.597656 32.84375 "/>
<path style=" stroke:none;fill-rule:nonzero;fill:rgb(8.235294%,39.607844%,75.294119%);fill-opacity:1;" d="M 34.5 34.222656 C 31.597656 37.089844 24.238281 38.132812 16.839844 36.363281 C 24.238281 39.515625 34.464844 37.738281 34.5 34.222656 Z M 34.5 34.222656 "/>
<path style=" stroke:none;fill-rule:nonzero;fill:rgb(35.294119%,54.11765%,8.235294%);fill-opacity:1;" d="M 12.074219 43.652344 L 12.074219 39.039062 L 13.449219 39.039062 L 13.449219 43.652344 C 13.449219 44.078125 13.355469 44.453125 13.164062 44.777344 C 12.976562 45.101562 12.714844 45.355469 12.371094 45.53125 C 12.03125 45.707031 11.644531 45.796875 11.214844 45.796875 C 10.507812 45.796875 9.957031 45.617188 9.566406 45.257812 C 9.171875 44.898438 8.976562 44.394531 8.976562 43.734375 L 10.359375 43.734375 C 10.359375 44.0625 10.425781 44.304688 10.5625 44.460938 C 10.703125 44.617188 10.917969 44.695312 11.214844 44.695312 C 11.476562 44.695312 11.683594 44.605469 11.839844 44.425781 C 11.996094 44.242188 12.074219 43.984375 12.074219 43.652344 Z M 18.746094 45.707031 L 17.410156 45.707031 C 17.347656 45.585938 17.304688 45.4375 17.277344 45.261719 C 16.957031 45.617188 16.539062 45.796875 16.027344 45.796875 C 15.539062 45.796875 15.136719 45.65625 14.820312 45.375 C 14.5 45.09375 14.34375 44.742188 14.34375 44.316406 C 14.34375 43.789062 14.535156 43.386719 14.925781 43.105469 C 15.3125 42.824219 15.875 42.683594 16.613281 42.679688 L 17.222656 42.679688 L 17.222656 42.394531 C 17.222656 42.167969 17.164062 41.984375 17.046875 41.84375 C 16.925781 41.707031 16.742188 41.640625 16.488281 41.640625 C 16.265625 41.640625 16.089844 41.695312 15.964844 41.800781 C 15.835938 41.90625 15.773438 42.054688 15.773438 42.238281 L 14.453125 42.238281 C 14.453125 41.953125 14.539062 41.6875 14.71875 41.441406 C 14.894531 41.199219 15.144531 41.007812 15.46875 40.867188 C 15.792969 40.730469 16.15625 40.660156 16.558594 40.660156 C 17.167969 40.660156 17.652344 40.8125 18.011719 41.121094 C 18.371094 41.425781 18.550781 41.859375 18.550781 42.414062 L 18.550781 44.5625 C 18.550781 45.03125 18.617188 45.386719 18.746094 45.628906 Z M 16.316406 44.785156 C 16.511719 44.785156 16.691406 44.742188 16.855469 44.65625 C 17.019531 44.566406 17.140625 44.449219 17.222656 44.304688 L 17.222656 43.453125 L 16.726562 43.453125 C 16.0625 43.453125 15.710938 43.679688 15.667969 44.136719 L 15.664062 44.214844 C 15.664062 44.382812 15.722656 44.519531 15.839844 44.625 C 15.953125 44.730469 16.113281 44.785156 16.316406 44.785156 Z M 20.429688 40.75 L 21.351562 44.089844 L 22.269531 40.75 L 23.652344 40.75 L 21.980469 45.707031 L 20.71875 45.707031 L 19.046875 40.75 Z M 28.375 45.707031 L 27.039062 45.707031 C 26.976562 45.585938 26.933594 45.4375 26.90625 45.261719 C 26.585938 45.617188 26.167969 45.796875 25.65625 45.796875 C 25.167969 45.796875 24.765625 45.65625 24.449219 45.375 C 24.128906 45.09375 23.96875 44.742188 23.96875 44.316406 C 23.96875 43.789062 24.164062 43.386719 24.554688 43.105469 C 24.941406 42.824219 25.503906 42.683594 26.242188 42.679688 L 26.851562 42.679688 L 26.851562 42.394531 C 26.851562 42.167969 26.792969 41.984375 26.675781 41.84375 C 26.554688 41.707031 26.371094 41.640625 26.117188 41.640625 C 25.894531 41.640625 25.71875 41.695312 25.59375 41.800781 C 25.464844 41.90625 25.402344 42.054688 25.402344 42.238281 L 24.082031 42.238281 C 24.082031 41.953125 24.167969 41.6875 24.347656 41.441406 C 24.523438 41.199219 24.773438 41.007812 25.097656 40.867188 C 25.421875 40.730469 25.785156 40.660156 26.1875 40.660156 C 26.796875 40.660156 27.28125 40.8125 27.640625 41.121094 C 27.996094 41.425781 28.175781 41.859375 28.175781 42.414062 L 28.175781 44.5625 C 28.179688 45.03125 28.246094 45.386719 28.375 45.628906 Z M 25.945312 44.785156 C 26.140625 44.785156 26.320312 44.742188 26.484375 44.65625 C 26.648438 44.566406 26.769531 44.449219 26.851562 44.304688 L 26.851562 43.453125 L 26.355469 43.453125 C 25.691406 43.453125 25.339844 43.679688 25.296875 44.136719 L 25.292969 44.214844 C 25.292969 44.382812 25.351562 44.519531 25.46875 44.625 C 25.582031 44.730469 25.742188 44.785156 25.945312 44.785156 Z M 33.289062 41.738281 L 33.289062 42.816406 L 30.652344 42.816406 L 30.652344 44.601562 L 33.75 44.601562 L 33.75 45.707031 L 29.28125 45.707031 L 29.28125 39.039062 L 33.738281 39.039062 L 33.738281 40.152344 L 30.652344 40.152344 L 30.652344 41.738281 Z M 38.566406 41.738281 L 38.566406 42.816406 L 35.929688 42.816406 L 35.929688 44.601562 L 39.023438 44.601562 L 39.023438 45.707031 L 34.554688 45.707031 L 34.554688 39.039062 L 39.015625 39.039062 L 39.015625 40.152344 L 35.929688 40.152344 L 35.929688 41.738281 Z M 38.566406 41.738281 "/>
</g>
</svg>
