<?xml version="1.0" encoding="UTF-8"?>
<svg xmlns="http://www.w3.org/2000/svg" xmlns:xlink="http://www.w3.org/1999/xlink" width="96pt" height="96pt" viewBox="0 0 96 96" version="1.1">
<g id="surface17235003">
<path style=" stroke:none;fill-rule:nonzero;fill:rgb(95.686275%,26.274511%,21.176471%);fill-opacity:1;" d="M 47.511719 49.257812 C 46.113281 47.003906 45.097656 45.136719 43.695312 41.621094 C 41.320312 35.679688 58.136719 30.3125 51.316406 20 C 54.273438 27.125 40.710938 31.527344 39.449219 37.460938 C 38.296875 42.917969 47.503906 49.257812 47.511719 49.257812 Z M 47.511719 49.257812 "/>
<path style=" stroke:none;fill-rule:nonzero;fill:rgb(95.686275%,26.274511%,21.176471%);fill-opacity:1;" d="M 47.828125 38.578125 C 47.558594 42.101562 50.949219 43.976562 51.046875 46.550781 C 51.125 48.644531 49.023438 50.390625 49.023438 50.390625 C 49.023438 50.390625 52.839844 49.640625 54.03125 46.445312 C 55.355469 42.898438 51.464844 40.46875 51.867188 37.628906 C 52.238281 34.914062 60.308594 29.867188 60.308594 29.867188 C 60.308594 29.867188 48.433594 30.65625 47.828125 38.578125 Z M 47.828125 38.578125 "/>
<path style=" stroke:none;fill-rule:nonzero;fill:rgb(8.235294%,39.607844%,75.294119%);fill-opacity:1;" d="M 59.316406 49.476562 C 61.773438 48.925781 63.84375 50.488281 63.84375 52.289062 C 63.84375 56.351562 58.214844 60.191406 58.214844 60.191406 C 58.214844 60.191406 66.929688 59.152344 66.929688 52.484375 C 66.929688 48.074219 62.648438 46.972656 59.316406 49.476562 Z M 55.179688 52.753906 C 55.179688 52.753906 57.898438 50.816406 58.621094 50.089844 C 51.953125 51.503906 36.730469 51.695312 36.730469 50.46875 C 36.730469 49.335938 41.636719 48.171875 41.636719 48.171875 C 41.636719 48.171875 30.757812 48.015625 30.757812 51.226562 C 30.757812 54.574219 45 54.8125 55.179688 52.753906 Z M 55.179688 52.753906 "/>
<path style=" stroke:none;fill-rule:nonzero;fill:rgb(8.235294%,39.607844%,75.294119%);fill-opacity:1;" d="M 53.507812 55.800781 C 47.195312 57.898438 35.570312 57.226562 39.011719 54.410156 C 37.335938 54.410156 34.851562 55.757812 34.851562 57.054688 C 34.851562 59.652344 47.425781 61.660156 56.730469 57.855469 Z M 53.507812 55.800781 "/>
<path style=" stroke:none;fill-rule:nonzero;fill:rgb(8.235294%,39.607844%,75.294119%);fill-opacity:1;" d="M 40.558594 60.234375 C 38.269531 60.234375 36.789062 61.710938 36.789062 62.785156 C 36.789062 66.132812 50.453125 66.46875 55.863281 63.074219 L 52.425781 60.789062 C 48.378906 62.566406 38.21875 62.8125 40.558594 60.234375 Z M 40.558594 60.234375 "/>
<path style=" stroke:none;fill-rule:nonzero;fill:rgb(8.235294%,39.607844%,75.294119%);fill-opacity:1;" d="M 65.195312 65.683594 C 65.195312 64.375 63.714844 63.757812 63.1875 63.460938 C 66.304688 70.984375 31.945312 70.398438 31.945312 65.960938 C 31.945312 64.949219 34.472656 63.960938 36.8125 64.429688 L 34.824219 63.253906 C 30.164062 62.523438 27 64.570312 27 66.222656 C 27 73.929688 65.195312 73.558594 65.195312 65.683594 Z M 65.195312 65.683594 "/>
<path style=" stroke:none;fill-rule:nonzero;fill:rgb(8.235294%,39.607844%,75.294119%);fill-opacity:1;" d="M 69 68.445312 C 63.195312 74.179688 48.476562 76.265625 33.675781 72.726562 C 48.476562 79.03125 68.929688 75.480469 69 68.445312 Z M 69 68.445312 "/>
<path style=" stroke:none;fill-rule:nonzero;fill:rgb(35.294119%,54.11765%,8.235294%);fill-opacity:1;" d="M 23.488281 87.308594 L 23.488281 78.082031 L 26.238281 78.082031 L 26.238281 87.308594 C 26.238281 88.15625 26.050781 88.90625 25.671875 89.554688 C 25.296875 90.207031 24.769531 90.707031 24.085938 91.0625 C 23.402344 91.417969 22.628906 91.59375 21.769531 91.59375 C 20.359375 91.59375 19.257812 91.234375 18.472656 90.515625 C 17.6875 89.800781 17.292969 88.785156 17.292969 87.472656 L 20.058594 87.472656 C 20.058594 88.125 20.195312 88.609375 20.46875 88.921875 C 20.746094 89.230469 21.179688 89.386719 21.769531 89.386719 C 22.292969 89.386719 22.710938 89.207031 23.023438 88.847656 C 23.335938 88.484375 23.488281 87.972656 23.488281 87.308594 Z M 36.832031 91.410156 L 34.160156 91.410156 C 34.039062 91.171875 33.949219 90.878906 33.894531 90.523438 C 33.253906 91.238281 32.417969 91.59375 31.394531 91.59375 C 30.421875 91.59375 29.617188 91.3125 28.984375 90.75 C 28.34375 90.191406 28.027344 89.484375 28.027344 88.628906 C 28.027344 87.578125 28.414062 86.769531 29.191406 86.210938 C 29.96875 85.648438 31.09375 85.363281 32.566406 85.359375 L 33.785156 85.359375 L 33.785156 84.789062 C 33.785156 84.332031 33.667969 83.964844 33.433594 83.691406 C 33.195312 83.417969 32.824219 83.28125 32.320312 83.28125 C 31.875 83.28125 31.523438 83.386719 31.269531 83.601562 C 31.015625 83.8125 30.890625 84.105469 30.890625 84.480469 L 28.246094 84.480469 C 28.246094 83.902344 28.421875 83.371094 28.777344 82.886719 C 29.128906 82.394531 29.628906 82.011719 30.277344 81.738281 C 30.925781 81.457031 31.652344 81.320312 32.457031 81.320312 C 33.675781 81.320312 34.648438 81.625 35.363281 82.242188 C 36.082031 82.851562 36.441406 83.714844 36.441406 84.828125 L 36.441406 89.121094 C 36.445312 90.0625 36.578125 90.773438 36.832031 91.253906 Z M 31.972656 89.570312 C 32.363281 89.570312 32.722656 89.484375 33.050781 89.308594 C 33.378906 89.132812 33.625 88.902344 33.785156 88.609375 L 33.785156 86.90625 L 32.796875 86.90625 C 31.46875 86.90625 30.765625 87.363281 30.679688 88.277344 L 30.671875 88.433594 C 30.671875 88.765625 30.785156 89.035156 31.019531 89.25 C 31.25 89.464844 31.566406 89.570312 31.972656 89.570312 Z M 40.203125 81.503906 L 42.042969 88.179688 L 43.882812 81.503906 L 46.648438 81.503906 L 43.304688 91.410156 L 40.777344 91.410156 L 37.4375 81.503906 Z M 56.089844 91.410156 L 53.417969 91.410156 C 53.292969 91.171875 53.207031 90.878906 53.152344 90.523438 C 52.511719 91.238281 51.675781 91.59375 50.652344 91.59375 C 49.679688 91.59375 48.875 91.3125 48.238281 90.75 C 47.601562 90.191406 47.28125 89.484375 47.28125 88.628906 C 47.28125 87.578125 47.671875 86.769531 48.449219 86.210938 C 49.226562 85.648438 50.351562 85.363281 51.824219 85.359375 L 53.042969 85.359375 L 53.042969 84.789062 C 53.042969 84.332031 52.925781 83.964844 52.691406 83.691406 C 52.453125 83.417969 52.082031 83.28125 51.578125 83.28125 C 51.132812 83.28125 50.78125 83.386719 50.527344 83.601562 C 50.273438 83.8125 50.148438 84.105469 50.148438 84.480469 L 47.5 84.480469 C 47.5 83.902344 47.679688 83.371094 48.035156 82.886719 C 48.386719 82.394531 48.886719 82.011719 49.535156 81.738281 C 50.183594 81.457031 50.910156 81.320312 51.714844 81.320312 C 52.933594 81.320312 53.902344 81.625 54.621094 82.242188 C 55.335938 82.851562 55.695312 83.714844 55.695312 84.828125 L 55.695312 89.121094 C 55.703125 90.0625 55.835938 90.773438 56.089844 91.253906 Z M 51.230469 89.570312 C 51.621094 89.570312 51.980469 89.484375 52.308594 89.308594 C 52.636719 89.132812 52.882812 88.902344 53.042969 88.609375 L 53.042969 86.90625 L 52.054688 86.90625 C 50.726562 86.90625 50.023438 87.363281 49.9375 88.277344 L 49.929688 88.433594 C 49.929688 88.765625 50.042969 89.035156 50.277344 89.25 C 50.507812 89.464844 50.824219 89.570312 51.230469 89.570312 Z M 65.921875 83.746094 L 65.921875 85.960938 L 60.648438 85.960938 L 60.648438 91.410156 L 57.902344 91.410156 L 57.902344 78.082031 L 66.582031 78.082031 L 66.582031 80.304688 L 60.648438 80.304688 L 60.648438 83.746094 Z M 70.449219 78.082031 L 72.949219 82.675781 L 75.449219 78.082031 L 78.609375 78.082031 L 74.726562 84.691406 L 78.707031 91.410156 L 75.511719 91.410156 L 72.949219 86.742188 L 70.386719 91.410156 L 67.1875 91.410156 L 71.171875 84.691406 L 67.289062 78.082031 Z M 70.449219 78.082031 "/>
</g>
</svg>
